<?xml version="1.0" standalone="no"?>
<!DOCTYPE svg PUBLIC "-//W3C//DTD SVG 1.1//EN" "http://www.w3.org/Graphics/SVG/1.1/DTD/svg11.dtd" >
<svg xmlns="http://www.w3.org/2000/svg" xmlns:xlink="http://www.w3.org/1999/xlink" version="1.1" viewBox="-10 0 1012 1000">
   <path fill="currentColor"
d="M499 879c-53 0 -96 -43 -96 -97c0 -53 43 -96 96 -96s96 43 96 96c0 54 -43 97 -96 97zM566 565c0 16 -14 29 -30 29h-77c-16 0 -29 -13 -29 -29l-24 -403c0 -16 13 -29 29 -29h125c16 0 29 13 29 29zM50 853c0 51 45 97 96 97h701c51 0 95 -46 95 -98v-701
c0 -51 -45 -95 -96 -95h-701c-51 0 -95 45 -95 96v701zM0 892v-779c0 -57 49 -107 106 -107h779c57 0 107 49 107 106v779c0 57 -49 109 -106 109h-779c-57 0 -107 -51 -107 -108z" />
</svg>
