<?xml version="1.0" standalone="no"?>
<!DOCTYPE svg PUBLIC "-//W3C//DTD SVG 1.1//EN" "http://www.w3.org/Graphics/SVG/1.1/DTD/svg11.dtd" >
<svg xmlns="http://www.w3.org/2000/svg" xmlns:xlink="http://www.w3.org/1999/xlink" version="1.1" viewBox="-10 0 1010 1000">
   <path fill="currentColor"
d="M312.5 83.333v166.667c0 33.333 -27.083 62.5 -62.5 62.5h-166.667c-35.416 0 -62.5 -29.167 -62.5 -62.5v-166.667c0 -35.416 27.084 -62.5 62.5 -62.5h166.667c35.417 0 62.5 27.084 62.5 62.5zM312.5 416.667v166.666c0 33.334 -27.083 62.5 -62.5 62.5h-166.667
c-35.416 0 -62.5 -29.166 -62.5 -62.5v-166.666c0 -35.417 27.084 -62.5 62.5 -62.5h166.667c35.417 0 62.5 27.083 62.5 62.5zM312.5 750v166.667c0 33.333 -27.083 62.5 -62.5 62.5h-166.667c-35.416 0 -62.5 -29.167 -62.5 -62.5v-166.667
c0 -35.417 27.084 -62.5 62.5 -62.5h166.667c35.417 0 62.5 27.083 62.5 62.5zM645.833 83.333v166.667c0 33.333 -27.083 62.5 -62.5 62.5h-166.666c-35.417 0 -62.5 -29.167 -62.5 -62.5v-166.667c0 -35.416 27.083 -62.5 62.5 -62.5h166.666
c35.417 0 62.5 27.084 62.5 62.5zM645.833 416.667v166.665c0 33.334 -27.083 62.5 -62.5 62.5h-166.666c-35.417 0 -62.5 -29.166 -62.5 -62.5v-166.666c0 -26.5781 15.252 -48.4629 37.833 -57.7305c0.986328 -0.404297 1.98633 -0.785156 3 -1.1416
c6.70312 -2.35449 13.9893 -3.62695 21.667 -3.62695h166.666c35.417 0 62.5 27.083 62.5 62.5zM645.833 749.999v166.667c0 33.333 -27.083 62.5 -62.5 62.5h-166.666c-35.417 0 -62.5 -29.167 -62.5 -62.5v-166.667c0 -35.417 27.083 -62.5 62.5 -62.5h166.666
c35.417 0 62.5 27.083 62.5 62.5zM979.167 83.332v166.667c0 33.333 -27.084 62.5 -62.5 62.5h-166.667c-35.417 0 -62.5 -29.167 -62.5 -62.5v-166.667c0 -35.416 27.083 -62.5 62.5 -62.5h166.667c35.416 0 62.5 27.084 62.5 62.5zM979.167 416.666v166.666
c0 33.334 -27.084 62.5 -62.5 62.5h-166.667c-35.417 0 -62.5 -29.166 -62.5 -62.5v-166.666c0 -35.417 27.083 -62.5 62.5 -62.5h166.667c35.416 0 62.5 27.083 62.5 62.5zM979.167 749.999v166.667c0 33.333 -27.084 62.5 -62.5 62.5h-166.667
c-35.417 0 -62.5 -29.167 -62.5 -62.5v-166.667c0 -35.417 27.083 -62.5 62.5 -62.5h166.667c35.416 0 62.5 27.083 62.5 62.5z" />
</svg>
