<?xml version="1.0" encoding="UTF-8" standalone="no"?>
<!DOCTYPE svg PUBLIC "-//W3C//DTD SVG 1.1//EN" "http://www.w3.org/Graphics/SVG/1.1/DTD/svg11.dtd">
<svg width="100%" height="100%" viewBox="0 0 1000 1000" version="1.1" xmlns="http://www.w3.org/2000/svg" xmlns:xlink="http://www.w3.org/1999/xlink" xml:space="preserve" xmlns:serif="http://www.serif.com/" style="fill-rule:evenodd;clip-rule:evenodd;stroke-linejoin:round;stroke-miterlimit:2;">
    <g>
        <path d="M304.348,76.087L304.348,228.261C304.348,270.254 270.254,304.348 228.261,304.348L76.087,304.348C34.093,304.348 0,270.254 0,228.261L0,76.087C0,34.093 34.093,0 76.087,0L228.261,0C270.254,0 304.348,34.093 304.348,76.087Z"/>
        <path d="M652.174,76.087L652.174,228.261C652.174,270.254 618.08,304.348 576.087,304.348L423.913,304.348C381.92,304.348 347.826,270.254 347.826,228.261L347.826,76.087C347.826,34.093 381.92,0 423.913,0L576.087,0C618.08,0 652.174,34.093 652.174,76.087Z"/>
        <path d="M1000,76.087L1000,228.261C1000,270.254 965.907,304.348 923.913,304.348L771.739,304.348C729.746,304.348 695.652,270.254 695.652,228.261L695.652,76.087C695.652,34.093 729.746,0 771.739,0L923.913,0C965.907,0 1000,34.093 1000,76.087Z"/>
        <path d="M304.348,423.913L304.348,576.087C304.348,618.08 270.254,652.174 228.261,652.174L76.087,652.174C34.093,652.174 0,618.08 0,576.087L0,423.913C0,381.92 34.093,347.826 76.087,347.826L228.261,347.826C270.254,347.826 304.348,381.92 304.348,423.913Z"/>
        <path d="M652.174,423.913L652.174,576.087C652.174,618.08 618.08,652.174 576.087,652.174L423.913,652.174C381.92,652.174 347.826,618.08 347.826,576.087L347.826,423.913C347.826,381.92 381.92,347.826 423.913,347.826L576.087,347.826C618.08,347.826 652.174,381.92 652.174,423.913Z"/>
        <path d="M1000,423.913L1000,576.087C1000,618.08 965.907,652.174 923.913,652.174L771.739,652.174C729.746,652.174 695.652,618.08 695.652,576.087L695.652,423.913C695.652,381.92 729.746,347.826 771.739,347.826L923.913,347.826C965.907,347.826 1000,381.92 1000,423.913Z"/>
        <path d="M304.348,771.739L304.348,923.913C304.348,965.907 270.254,1000 228.261,1000L76.087,1000C34.093,1000 0,965.907 0,923.913L0,771.739C0,729.746 34.093,695.652 76.087,695.652L228.261,695.652C270.254,695.652 304.348,729.746 304.348,771.739Z"/>
        <path d="M652.174,771.739L652.174,923.913C652.174,965.907 618.08,1000 576.087,1000L423.913,1000C381.92,1000 347.826,965.907 347.826,923.913L347.826,771.739C347.826,729.746 381.92,695.652 423.913,695.652L576.087,695.652C618.08,695.652 652.174,729.746 652.174,771.739Z"/>
        <path d="M1000,771.739L1000,923.913C1000,965.907 965.907,1000 923.913,1000L771.739,1000C729.746,1000 695.652,965.907 695.652,923.913L695.652,771.739C695.652,729.746 729.746,695.652 771.739,695.652L923.913,695.652C965.907,695.652 1000,729.746 1000,771.739Z"/>
    </g>
</svg>
