<?xml version="1.0" standalone="no"?>
<!DOCTYPE svg PUBLIC "-//W3C//DTD SVG 1.1//EN" "http://www.w3.org/Graphics/SVG/1.1/DTD/svg11.dtd" >
<svg xmlns="http://www.w3.org/2000/svg" xmlns:xlink="http://www.w3.org/1999/xlink" version="1.1" viewBox="-10 0 1010 1000">
   <path fill="currentColor"
d="M392 29c-27 27 -141 143 -199 278c56 -44 119 -59 168 -59c12 0 24 1 34 3c-56 29 -167 111 -167 237v3c0 11 -1 16 0 27c13 139 113 202 170 231c-10 2 -22 3 -35 3c-50 0 -115 -17 -171 -61c58 135 172 250 199 277c-130 -19 -351 -164 -378 -419c-2 -17 -3 -34 -3 -52
v-4c0 -203 154 -415 382 -464zM608 29c228 49 382 261 382 464v4c0 287 -242 451 -381 471c27 -27 141 -142 199 -277c-56 44 -121 61 -171 61c-13 0 -25 -1 -35 -3c57 -29 157 -92 170 -231c1 -11 0 -16 0 -27v-3c0 -126 -111 -208 -167 -237c10 -2 22 -3 34 -3
c49 0 112 15 168 59c-58 -135 -172 -251 -199 -278zM502 667c-94 0 -170 -76 -170 -170c0 -91 71 -169 170 -169s170 78 170 169c0 94 -76 170 -170 170z" />
</svg>
