<?xml version="1.0" encoding="UTF-8" standalone="no"?>
<!DOCTYPE svg PUBLIC "-//W3C//DTD SVG 1.1//EN" "http://www.w3.org/Graphics/SVG/1.1/DTD/svg11.dtd">
<svg width="100%" height="100%" viewBox="0 0 100 100" version="1.1" xmlns="http://www.w3.org/2000/svg" xmlns:xlink="http://www.w3.org/1999/xlink" xml:space="preserve" xmlns:serif="http://www.serif.com/" style="fill-rule:evenodd;clip-rule:evenodd;stroke-linejoin:round;stroke-miterlimit:2;">
    <g transform="matrix(2.08333,0,0,2.08333,-54.1667,-54.1667)">
        <g transform="matrix(2.4,0,0,2.4,-91.6,-89.2)">
            <path d="M55.007,67.17C51.473,65.627 49,62.1 49,58C49,53.9 51.473,50.373 55.007,48.83C52.9,50.749 51.5,54.14 51.5,58C51.5,61.86 52.9,65.251 55.007,67.17ZM62.993,48.83C66.527,50.373 69,53.9 69,58C69,62.1 66.527,65.627 62.993,67.17C65.1,65.251 66.5,61.86 66.5,58C66.5,54.14 65.1,50.749 62.993,48.83Z"/>
        </g>
        <g transform="matrix(1.9,0,0,1.4,-62.1,-31.2)">
            <path d="M54.812,67.082C51.382,65.496 49,62.024 49,58C49,53.976 51.382,50.504 54.812,48.918C52.586,50.813 51.105,54.174 51.105,58C51.105,61.826 52.586,65.187 54.812,67.082ZM63.188,48.918C66.618,50.504 69,53.976 69,58C69,62.024 66.618,65.496 63.188,67.082C65.414,65.187 66.895,61.826 66.895,58C66.895,54.174 65.414,50.813 63.188,48.918Z"/>
        </g>
        <g transform="matrix(1,0,0,1,-9,-8)">
            <circle cx="59" cy="58" r="10"/>
        </g>
    </g>
</svg>
