<?xml version="1.0" standalone="no"?>
<!DOCTYPE svg PUBLIC "-//W3C//DTD SVG 1.1//EN" "http://www.w3.org/Graphics/SVG/1.1/DTD/svg11.dtd" >
<svg xmlns="http://www.w3.org/2000/svg" xmlns:xlink="http://www.w3.org/1999/xlink" version="1.1" viewBox="-10 0 1010 1000">
   <path fill="currentColor"
d="M281 578c22 2 23.5928 -30.9111 1.07324 -31.1465l-32.1348 0.03125v-93.7812h31.4023c0.12793 0.00195312 0.254883 0.00292969 0.380859 0.00292969c10.3652 0 15.5322 -7.80371 15.5322 -15.6133c0 -7.82031 -5.18262 -15.6465 -15.5166 -15.6465
c-0.171875 0 -0.344727 0.00195312 -0.519531 0.00585938h-31.2803v-93.5967l31.4023 -0.177734c21.3027 0.389648 21.1768 -31.7812 -0.12207 -31.249l-31.2803 0.176758v-93.8418l31.4023 -0.118164c0.126953 0.00195312 0.253906 0.00292969 0.379883 0.00292969
c10.3662 0 15.5342 -7.80371 15.5342 -15.6133c0 -7.82031 -5.18164 -15.6465 -15.5146 -15.6465c-0.171875 0 -0.344727 0.00195312 -0.519531 0.00585938l-31.2812 0.118164v-125c-0.0537109 -8.83496 7.2207 -15.9531 16.0527 -15.7168
c4.77246 0.129883 9.22363 2.43555 12.085 6.25684l687.438 906.243c7.74316 10.2861 0.422852 24.9932 -12.4512 25.0244l-77.9727 -0.0585938v-31.1895c0.173828 -8.85645 -7.04199 -16.1074 -15.8994 -15.9297c-8.6416 0.151367 -15.5215 7.28809 -15.3506 15.9297
v31.1895h-93.7803v-31.1895c0.171875 -8.82031 -6.98633 -16.0479 -15.8076 -15.9297c-8.67773 0.100586 -15.6133 7.25391 -15.4424 15.9297v31.1895h-93.7803v-31.1895c0.171875 -8.82031 -6.9873 -16.0479 -15.8086 -15.9297
c-8.67773 0.100586 -15.6123 7.25391 -15.4414 15.9297v31.1895l-93.6582 0.0585938v-31.25c0.103516 -8.82129 -7.11035 -15.9854 -15.9307 -15.8076c-8.58105 0.166992 -15.4209 7.22461 -15.3193 15.8076v31.25l-94.0254 -0.0585938v-31.1895
c0.171875 -8.80762 -6.96777 -16.0479 -15.7773 -15.9297c-8.6416 0.151367 -15.5195 7.28809 -15.3506 15.9297v31.1895l-78.0938 0.0585938c-8.62988 0.0332031 -15.6523 -6.93457 -15.6865 -15.5635v-125.03h31.2803
c0.155273 0.00390625 0.308594 0.00585938 0.460938 0.00585938c10.3428 0 15.5146 -7.81543 15.5146 -15.6309s-5.17188 -15.6309 -15.5146 -15.6309c-0.152344 0 -0.305664 0.00195312 -0.460938 0.00585938h-31.2803v-93.6865l31.4023 -0.118164
c21.3027 0.389648 21.1768 -31.7812 -0.121094 -31.249l-31.2812 0.118164v-93.7812zM46.8135 31.4424l140.743 -0.000976562c8.67676 -0.0332031 15.7188 7.00879 15.6865 15.6855v906.252c0.0332031 8.67676 -7.00977 15.7168 -15.6865 15.6855h-140.749
c-8.62891 -0.0341797 -15.5967 -7.05664 -15.5635 -15.6855v-62.6221l31.2803 0.118164c0.181641 0.00488281 0.362305 0.00683594 0.541016 0.00683594c10.3203 0 15.4961 -7.82715 15.4961 -15.6484c0 -7.80957 -5.16016 -15.6133 -15.5107 -15.6133
c-0.133789 0 -0.268555 0.000976562 -0.404297 0.00390625l-31.4023 -0.118164v-62.499l31.2803 0.118164h0.0820312c10.4043 0 15.6211 -7.83105 15.6211 -15.6562c0 -7.7998 -5.18262 -15.5938 -15.5791 -15.623l-31.4033 -0.118164v-62.5312l31.2812 0.118164
c0.181641 0.00488281 0.362305 0.00683594 0.541016 0.00683594c10.3193 0 15.4941 -7.82715 15.4941 -15.6484c0 -7.80957 -5.15918 -15.6133 -15.5088 -15.6133c-0.133789 0 -0.268555 0.000976562 -0.404297 0.00390625l-31.4023 -0.118164v-62.5303l31.2803 0.118164
c0.181641 0.00488281 0.362305 0.00683594 0.541016 0.00683594c10.3203 0 15.4961 -7.82715 15.4961 -15.6484c0 -7.80957 -5.15918 -15.6123 -15.5088 -15.6123c-0.134766 0 -0.269531 0.000976562 -0.405273 0.00390625l-31.4023 -0.118164v-62.4082l31.2803 0.118164
c0.181641 0.00488281 0.362305 0.00683594 0.541016 0.00683594c10.3203 0 15.4961 -7.82715 15.4961 -15.6484c0 -7.80957 -5.16016 -15.6133 -15.5098 -15.6133c-0.133789 0 -0.268555 0.000976562 -0.404297 0.00390625l-31.4023 -0.118164v-62.499l31.2803 0.118164
c0.181641 0.00488281 0.362305 0.00683594 0.541016 0.00683594c10.3203 0 15.4961 -7.82715 15.4961 -15.6484c0 -7.80957 -5.16016 -15.6133 -15.5107 -15.6133c-0.133789 0 -0.268555 0.000976562 -0.404297 0.00390625l-31.4023 -0.118164v-62.499l31.2803 0.118164
h0.0820312c10.4043 0 15.6211 -7.83105 15.6211 -15.6562c0 -7.7998 -5.18262 -15.5938 -15.5791 -15.623l-31.4033 -0.118164v-62.5312l31.2812 0.118164c21.2979 0.555664 21.4238 -31.6631 0.12207 -31.249l-31.4023 -0.118164v-62.5303l31.2803 0.117188
c0.181641 0.00488281 0.362305 0.00683594 0.541016 0.00683594c10.3193 0 15.4941 -7.82715 15.4941 -15.6484c0 -7.80957 -5.15918 -15.6133 -15.5088 -15.6133c-0.133789 0 -0.268555 0.000976562 -0.404297 0.00390625l-31.4023 -0.118164v-62.2861
c-0.0332031 -8.62891 6.93457 -15.6514 15.5635 -15.6865zM406.338 437.45c-8.67676 -0.0332031 -15.7197 7.00879 -15.6865 15.6855v281.188c-0.0498047 8.6416 6.92285 15.6855 15.5645 15.7168h218.811c13.0615 0.0527344 20.4189 -14.9902 12.3594 -25.2686
l-218.811 -281.22c-2.92578 -3.80566 -7.4375 -6.05664 -12.2373 -6.10254z" />
</svg>
