<?xml version="1.0" encoding="UTF-8" standalone="no"?>
<!DOCTYPE svg PUBLIC "-//W3C//DTD SVG 1.1//EN" "http://www.w3.org/Graphics/SVG/1.1/DTD/svg11.dtd">
<svg width="100%" height="100%" viewBox="0 0 800 800" version="1.1" xmlns="http://www.w3.org/2000/svg" xmlns:xlink="http://www.w3.org/1999/xlink" xml:space="preserve" xmlns:serif="http://www.serif.com/" style="fill-rule:evenodd;clip-rule:evenodd;stroke-linejoin:round;stroke-miterlimit:2;">
    <g transform="matrix(1.04291,0,0,1.04291,-31.2821,-3.04083)">
        <g>
            <path d="M763.586,2.142L635.258,56.537C625.601,60.631 619.321,70.108 619.321,80.6L619.321,143.71L240.869,522.162L175.292,520.306C165.906,517.165 155.543,519.6 148.548,526.62L37.658,637.513C23.945,651.224 29.45,674.662 47.869,680.788L116.368,683.627L119.207,752.127C125.287,770.402 148.659,776.162 162.482,762.336L273.375,651.443C280.378,644.44 282.821,634.094 279.688,624.699L277.832,559.121L656.283,180.67L719.393,180.67C729.885,180.67 739.363,174.39 743.455,164.732L797.85,36.405C807.028,14.767 785.084,-7.002 763.586,2.142Z" style="fill-rule:nonzero;"/>
        </g>
    </g>
    <g transform="matrix(-0.997543,0,0,0.987503,803.083,10.0002)">
        <path d="M443.263,493.459L770.831,166.215C780.484,156.57 789.393,137.565 790.628,123.975L799.851,22.562C801.086,8.972 790.981,-1.133 777.391,0.102L675.782,9.342C662.196,10.577 643.179,19.477 633.526,29.119L306.748,355.557L443.263,493.459ZM306.747,355.555L219.415,442.806C209.762,452.451 209.762,468.232 219.415,477.874L321.157,580.378C330.81,590.02 346.604,590.02 356.258,580.378L443.263,493.459L306.747,355.555ZM176.279,671.408C183.851,685.339 195.274,677.207 195.277,677.213C215.217,663.436 235.342,650.908 252.656,640.69L316.799,704.75L316.799,767.592C316.799,779.627 326.548,789.36 338.586,789.36C350.612,789.36 360.362,779.624 360.362,767.592L360.362,695.723C360.362,689.951 358.069,684.405 353.981,680.317L118.636,445.214C114.553,441.135 109.021,438.841 103.233,438.841L31.71,438.841C19.687,438.841 9.94,448.597 9.94,460.618C9.94,472.644 19.687,482.399 31.71,482.399L94.23,482.399L158.629,546.746C149.037,563.69 137.435,583.14 124.711,602.499C124.711,602.499 114.884,616.593 127.316,623.172C137.719,628.677 147.422,635.654 155.983,644.204C164.148,652.369 170.918,661.545 176.279,671.408ZM73.35,653.565C53.762,653.565 35.355,661.184 21.495,675.022C7.66,688.845 0.044,707.234 0.044,726.783C0.044,746.345 7.663,764.717 21.495,778.538C35.352,792.365 53.762,799.992 73.35,799.997C92.926,799.997 111.337,792.362 125.182,778.538C139.028,764.714 146.655,746.337 146.655,726.783C146.655,707.231 139.025,688.842 125.182,675.022C111.339,661.184 92.926,653.565 73.35,653.565Z"/>
    </g>
</svg>
