<?xml version="1.0" standalone="no"?>
<!DOCTYPE svg PUBLIC "-//W3C//DTD SVG 1.1//EN" "http://www.w3.org/Graphics/SVG/1.1/DTD/svg11.dtd" >
<svg xmlns="http://www.w3.org/2000/svg" xmlns:xlink="http://www.w3.org/1999/xlink" version="1.1" viewBox="-10 0 1010 1000">
   <path fill="currentColor"
d="M660 760c26 -36 57 -67 94 -94l144 143l-94 95l-114 -114zM843 597c-120 54 -201 135 -246 245c-5 13 -17 21 -30 21c-4 0 -9 -1 -13 -3c-8 -3 -15 -10 -18 -18s-3 -17 0 -25c26 -63 63 -118 110 -165v-1h1c29 -28 61 -54 97 -76h1v-1c22 -14 46 -26 71 -37
c4 -2 8 -3 13 -3c4 0 8 1 12 2c8 3 14 9 18 17c2 4 3 9 3 14c0 8 -3 17 -9 23c-3 3 -6 5 -10 7zM984 832c0 10 -3 18 -10 25l-122 122c-7 7 -17 11 -26 11s-18 -4 -25 -11s-11 -15 -11 -25s4 -18 11 -25l8 -9l105 -105l1 -1l8 -8c7 -7 16 -10 25 -10s19 3 26 10s10 16 10 26
zM150 144c-3 -3 -8 -3 -11 0s-3 8 0 11l491 491c-24 25 -45 52 -64 81l-538 -467c-7 -6 -11 -14 -11 -23l-7 -195c0 -9 3 -17 9 -23s14 -9 23 -9l195 7c9 0 17 4 23 11l468 539c-32 20 -61 43 -87 68z" />
</svg>
