<?xml version="1.0" encoding="UTF-8" standalone="no"?>
<!DOCTYPE svg PUBLIC "-//W3C//DTD SVG 1.1//EN" "http://www.w3.org/Graphics/SVG/1.1/DTD/svg11.dtd">
<svg width="100%" height="100%" viewBox="0 0 2485 1000" version="1.1" xmlns="http://www.w3.org/2000/svg" xmlns:xlink="http://www.w3.org/1999/xlink" xml:space="preserve" xmlns:serif="http://www.serif.com/" style="fill-rule:evenodd;clip-rule:evenodd;stroke-linejoin:round;stroke-miterlimit:2;">
    <g>
        <path d="M603.771,741.512L504.863,741.512L504.863,402.786L389.358,402.786L389.358,337.073C419.843,335.718 441.183,333.686 453.377,330.976C472.797,326.685 488.604,318.104 500.799,305.233C509.154,296.426 515.477,284.683 519.767,270.005C522.25,261.198 523.492,254.65 523.492,250.359L603.771,250.359L603.771,741.512Z" style="fill-rule:nonzero;"/>
        <path d="M968.24,350.283C956.724,336.508 940.239,329.621 918.786,329.621C889.43,329.621 869.445,340.573 858.832,362.477C852.735,375.123 849.122,395.221 847.993,422.771L754.166,422.771C755.746,380.994 763.311,347.235 776.86,321.492C802.603,272.489 848.331,247.988 914.044,247.988C965.982,247.988 1007.31,262.384 1038.02,291.176C1068.73,319.967 1084.09,358.074 1084.09,405.496C1084.09,441.852 1073.25,474.144 1051.57,502.371C1037.34,521.114 1013.97,542.002 981.451,565.035L942.836,592.472C918.673,609.634 902.132,622.054 893.213,629.732C884.293,637.41 876.784,646.33 870.687,656.491L1085.1,656.491L1085.1,741.512L748.746,741.512C749.649,706.284 757.214,674.105 771.441,644.975C785.215,612.231 817.733,577.568 868.994,540.986C913.48,509.146 942.271,486.338 955.369,472.563C975.467,451.111 985.515,427.626 985.515,402.108C985.515,381.333 979.757,364.058 968.24,350.283Z" style="fill-rule:nonzero;"/>
        <rect x="1128.8" y="502.371" width="194.429" height="91.456" style="fill-rule:nonzero;"/>
        <path d="M1606.4,741.512L1507.49,741.512L1507.49,402.786L1391.99,402.786L1391.99,337.073C1422.47,335.718 1443.81,333.686 1456.01,330.976C1475.43,326.685 1491.23,318.104 1503.43,305.233C1511.78,296.426 1518.11,284.683 1522.4,270.005C1524.88,261.198 1526.12,254.65 1526.12,250.359L1606.4,250.359L1606.4,741.512Z" style="fill-rule:nonzero;"/>
        <path d="M1941.74,422.771C1985.32,422.771 2021.06,437.562 2048.95,467.144C2076.83,496.726 2090.78,534.55 2090.78,580.617C2090.78,626.458 2077.12,666.879 2049.79,701.881C2022.47,736.882 1980.02,754.383 1922.43,754.383C1860.56,754.383 1814.94,728.527 1785.59,676.815C1762.78,636.394 1751.38,584.23 1751.38,520.324C1751.38,482.838 1752.95,452.353 1756.12,428.868C1761.76,387.091 1772.71,352.316 1788.97,324.54C1802.97,300.829 1821.32,281.748 1844.02,267.295C1866.71,252.843 1893.87,245.617 1925.48,245.617C1971.1,245.617 2007.45,257.303 2034.55,280.675C2061.65,304.047 2076.89,335.153 2080.28,373.994L1984.08,373.994C1984.08,366.09 1981.03,357.396 1974.93,347.912C1964.55,332.557 1948.85,324.879 1927.85,324.879C1896.46,324.879 1874.11,342.493 1860.78,377.72C1853.56,397.14 1848.59,425.819 1845.88,463.756C1857.85,449.53 1871.74,439.142 1887.54,432.594C1903.35,426.045 1921.41,422.771 1941.74,422.771ZM1876.7,514.904C1857.74,529.582 1848.25,553.293 1848.25,586.036C1848.25,612.457 1855.36,634.023 1869.59,650.733C1883.82,667.444 1901.88,675.799 1923.79,675.799C1945.24,675.799 1962.12,667.726 1974.43,651.58C1986.73,635.434 1992.89,614.489 1992.89,588.746C1992.89,560.067 1985.89,538.107 1971.88,522.864C1957.88,507.621 1940.72,500 1920.4,500C1903.91,500 1889.35,504.968 1876.7,514.904Z" style="fill-rule:nonzero;"/>
        <path d="M2340,814.836L2154.72,1000.12L329.105,1000.12L147.138,818.157L147.138,182.427L329.695,-0.126L2154.38,-0.126L2336.18,181.671L2340,814.836ZM2278.79,789.698L2275.28,207.117L2129.09,60.933L354.987,60.933L208.197,207.719L208.197,792.865L354.397,939.062L2129.43,939.062L2278.79,789.698Z"/>
    </g>
</svg>
