<?xml version="1.0" encoding="UTF-8" standalone="no"?>
<!DOCTYPE svg PUBLIC "-//W3C//DTD SVG 1.1//EN" "http://www.w3.org/Graphics/SVG/1.1/DTD/svg11.dtd">
<svg width="100%" height="100%" viewBox="0 0 2485 1000" version="1.1" xmlns="http://www.w3.org/2000/svg" xmlns:xlink="http://www.w3.org/1999/xlink" xml:space="preserve" xmlns:serif="http://www.serif.com/" style="fill-rule:evenodd;clip-rule:evenodd;stroke-linejoin:round;stroke-miterlimit:2;">
    <g>
        <path d="M1121.83,457.67L898.668,509.821L1121.83,562.649L1121.83,652.727L755.084,553.167L755.084,467.152L1121.83,367.592L1121.83,457.67ZM1121.83,745.515L755.084,745.515L755.084,662.209L1121.83,662.209L1121.83,745.515Z" style="fill-rule:nonzero;"/>
        <path d="M1374.12,745.515L1275.24,745.515L1275.24,406.874L1159.76,406.874L1159.76,341.178C1190.24,339.823 1211.57,337.791 1223.76,335.082C1243.18,330.793 1258.98,322.214 1271.17,309.346C1279.53,300.541 1285.85,288.801 1290.14,274.127C1292.62,265.322 1293.86,258.775 1293.86,254.486L1374.12,254.486L1374.12,745.515Z" style="fill-rule:nonzero;"/>
        <path d="M1721.9,745.515L1623.02,745.515L1623.02,406.874L1507.55,406.874L1507.55,341.178C1538.02,339.823 1559.36,337.791 1571.55,335.082C1590.96,330.793 1606.77,322.214 1618.96,309.346C1627.31,300.541 1633.63,288.801 1637.92,274.127C1640.41,265.322 1641.65,258.775 1641.65,254.486L1721.9,254.486L1721.9,745.515Z" style="fill-rule:nonzero;"/>
        <path d="M44.414,499.744L199.94,344.218L199.94,181.751L381.694,0L2205.92,0L2388.43,182.507L2388.43,818.077L2206.51,999.995L381.36,999.995L196.122,814.756L196.122,664.005L44.414,499.744ZM129.06,501.427L257.161,640.128L257.161,789.471L406.642,938.952L2181.22,938.952L2327.39,792.791L2327.39,207.793L2180.64,61.043L406.976,61.043L260.983,207.036L260.983,369.504L129.06,501.427Z"/>
    </g>
</svg>
