<?xml version="1.0" standalone="no"?>
<!DOCTYPE svg PUBLIC "-//W3C//DTD SVG 1.1//EN" "http://www.w3.org/Graphics/SVG/1.1/DTD/svg11.dtd" >
<svg xmlns="http://www.w3.org/2000/svg" xmlns:xlink="http://www.w3.org/1999/xlink" version="1.1" viewBox="-10 0 1528 1000">
   <path fill="currentColor"
d="M1403 363l95 95l-95 95v97l-111 111h-1101l-111 -111v-383l110 -112l1102 1l111 111v96zM1370 540l82 -82l-82 -82v-96l-92 -91l-1074 -1l-91 92v357l91 91h1074l92 -91v-97zM634 379l-6 -65h226v6l-101 271v13h-106l17 -20l95 -213h-113zM571 336v1v257l7 11h-96l10 -21
v-211l-6 2l-7 2l-41 11l-11 -25l71 -50h83l-9 22zM1018 344v101h95v36h-95v93h-39v-93h-96v-36h96v-101h39z" />
</svg>
