<?xml version="1.0" encoding="UTF-8" standalone="no"?>
<!DOCTYPE svg PUBLIC "-//W3C//DTD SVG 1.1//EN" "http://www.w3.org/Graphics/SVG/1.1/DTD/svg11.dtd">
<svg width="100%" height="100%" viewBox="0 0 2485 1000" version="1.1" xmlns="http://www.w3.org/2000/svg" xmlns:xlink="http://www.w3.org/1999/xlink" xml:space="preserve" xmlns:serif="http://www.serif.com/" style="fill-rule:evenodd;clip-rule:evenodd;stroke-linejoin:round;stroke-miterlimit:2;">
    <g>
        <path d="M925.38,745.515L826.497,745.515L826.497,406.874L711.02,406.874L711.02,341.178C741.498,339.823 762.832,337.791 775.023,335.082C794.439,330.793 810.242,322.214 822.433,309.346C830.786,300.541 837.108,288.801 841.397,274.127C843.88,265.322 845.122,258.775 845.122,254.486L925.38,254.486L925.38,745.515Z" style="fill-rule:nonzero;"/>
        <path d="M1354.1,412.292C1328.36,448.866 1306.8,486.568 1289.42,525.398C1275.65,555.876 1263.23,593.127 1252.17,637.15C1241.11,681.173 1235.58,717.295 1235.58,745.515L1135.34,745.515C1138.27,657.468 1167.17,565.922 1222.03,470.877C1257.47,411.954 1287.16,370.865 1311.09,347.612L1066.25,347.612L1067.61,260.92L1414.38,260.92L1414.38,336.437C1399.93,350.66 1379.84,375.945 1354.1,412.292Z" style="fill-rule:nonzero;"/>
        <path d="M1686.99,544.949L1686.99,684.469L1597.92,684.469L1597.92,544.949L1459.08,544.949L1459.08,456.564L1597.92,456.564L1597.92,317.722L1686.99,317.722L1686.99,456.564L1825.83,456.564L1825.83,544.949L1686.99,544.949Z" style="fill-rule:nonzero;"/>
        <path d="M2440.43,499.744L2288.72,664.005L2288.72,814.756L2103.49,999.995L278.334,999.995L96.413,818.077L96.413,182.507L278.924,0L2103.15,0L2284.91,181.751L2284.91,344.218L2440.43,499.744ZM2355.78,501.427L2223.86,369.504L2223.86,207.036L2077.87,61.043L304.209,61.043L157.456,207.793L157.456,792.791L303.62,938.952L2078.2,938.952L2227.68,789.471L2227.68,640.128L2355.78,501.427Z"/>
    </g>
</svg>
