<?xml version="1.0" standalone="no"?>
<!DOCTYPE svg PUBLIC "-//W3C//DTD SVG 1.1//EN" "http://www.w3.org/Graphics/SVG/1.1/DTD/svg11.dtd" >
<svg xmlns="http://www.w3.org/2000/svg" xmlns:xlink="http://www.w3.org/1999/xlink" version="1.1" viewBox="-10 0 1528 1000">
   <path fill="currentColor"
d="M819 313l-9 23v256l6 10h-95l10 -23v-207l-54 15l-11 -25l71 -49h82zM1030 313l-10 23v256l7 10h-96l10 -23v-207l-54 15l-10 -25l70 -49h83zM1328 155l110 112v383l-111 111h-1100l-111 -111v-96l-96 -96l96 -96v-95l111 -111zM1402 635v-353l-89 -91l-1071 1l-90 90v95
l-81 81l81 81v96l90 90h1070zM401 592v-36h186v36h-186zM587 369h-14l-106 55l106 55h14v49l-186 -96v-15l186 -97v49z" />
</svg>
