<?xml version="1.0" standalone="no"?>
<!DOCTYPE svg PUBLIC "-//W3C//DTD SVG 1.1//EN" "http://www.w3.org/Graphics/SVG/1.1/DTD/svg11.dtd" >
<svg xmlns="http://www.w3.org/2000/svg" xmlns:xlink="http://www.w3.org/1999/xlink" version="1.1" viewBox="-10 0 1498 1000">
   <path fill="currentColor"
d="M676 493v-58h163v43h-140zM336 312l-10 24v256l7 11h-97l10 -23v-208l-54 15l-10 -26l71 -49h83zM614 382c0 47 -25 85 -95 147l-20 17h98l13 -9l3 67h-228v-5c32 -23 67 -55 93 -86c42 -51 52 -87 52 -108c0 -15 -5 -26 -15 -34c-8 -8 -21 -12 -35 -12
c-31 0 -62 22 -80 44l-8 -85l12 7s50 -17 98 -17c70 0 112 28 112 74zM1298 155l110 112v383l-111 111h-1106l-111 -111v-383l110 -112h1108zM1375 637v-357l-91 -92h-1080l-91 92v357l91 91h1080zM999 313l-10 24v257l7 11h-96l9 -24v-208l-53 15l-11 -25l71 -50h83z
M1100 344c28 -26 67 -40 108 -40c48 0 78 13 79 13l3 1l12 -7l-13 86h-2c-11 -27 -38 -43 -72 -43c-46 0 -79 33 -79 78v13l10 -7c1 0 30 -20 71 -20c45 0 93 32 93 91c0 61 -52 103 -127 103c-38 0 -70 -12 -93 -35c-25 -25 -38 -64 -38 -111c0 -50 16 -92 48 -122z
M1139 475l-3 2v4c2 59 22 94 55 94c12 0 22 -4 30 -12c10 -10 15 -26 15 -45c-1 -27 -20 -56 -56 -57c-19 0 -36 11 -41 14z" />
</svg>
