<?xml version="1.0" standalone="no"?>
<!DOCTYPE svg PUBLIC "-//W3C//DTD SVG 1.1//EN" "http://www.w3.org/Graphics/SVG/1.1/DTD/svg11.dtd" >
<svg xmlns="http://www.w3.org/2000/svg" xmlns:xlink="http://www.w3.org/1999/xlink" version="1.1" viewBox="-10 0 995 1000">
   <path fill="currentColor"
d="M111.562 135c-12.9482 -9.00977 -23.7227 -20.5107 -31.876 -34.0635c-1.09961 -2.1377 -1.72949 -4.58203 -1.72949 -7.14941c0 -8.62402 7.00098 -15.625 15.625 -15.625c4.50293 0 5.41699 1.83691 11.417 4.96191c59.8145 31.1533 115.779 39.5869 170.374 39.5869
c64.4512 0 126.993 -11.7529 191.707 -11.7529c83.0615 0 169.7 19.3623 268.545 107.791c-24.6875 24.0625 -65 62.5 -89.6875 89.0625c-186.839 -154.489 -312.027 -59.7578 -501.875 -151.562c0 0 30.001 549.424 30.001 553.416
c0 0.0136719 0 0.0205078 -0.000976562 0.0214844c-11.1963 8.52051 -21.5039 17.6973 -31.25 27.8125zM917.187 894.999c3.26953 2.91992 5.33203 7.16406 5.33203 11.8877c0 0.358398 -0.410156 17.1289 -12.5215 17.1289c-8.33496 0 -22.2119 -7.94238 -45.3105 -34.6406
l-605.312 -31.25l27.1875 -27.1875c0.0283203 -0.568359 4.63281 -0.826172 12.9844 -0.826172c83.5107 0 541.646 25.8262 544.203 25.8262c-90.6475 -190.97 5.35059 -317.679 -152.499 -504.374l67.5 -67.5s22.3262 -22.502 22.499 -22.502
c0.000976562 0 0.000976562 0 0.000976562 0.000976562v0c91.3887 101.838 111.343 209.568 111.343 308.558c0 76.7393 -11.9922 148.226 -11.9922 207.642c0 48.2598 7.91113 88.5566 36.5859 117.237zM275.937 819.687l-37.5 37.499s-43.75 43.7422 -43.75 43.75v0
c-2.81934 2.76367 -6.68262 4.46387 -10.9395 4.46387c-8.54883 0 -15.5029 -6.88086 -15.623 -15.4014v-60c-18.4375 0.9375 -37.125 2 -55.125 3c-0.24707 0.0136719 -7.86035 0.139648 -8.11035 0.139648c-8.62305 0 -15.625 -7.00195 -15.625 -15.625
c0 -4.26465 1.71191 -8.13184 4.48535 -10.9521l47.1875 -48.125l31.25 -29.6875l2.5 -2.5c3.08789 -4.22461 15.8926 -5.23828 28.7041 -5.23828c11.8262 0 23.6582 0.864258 27.8584 0.864258h28.75c21.25 0 17.5 28.0625 19 41.125
c0.758789 6.6084 1.84082 18.7129 1.84082 30.166c0 11.7168 -1.13281 22.751 -4.90332 26.5215zM290.312 729.061c-3.10547 -10.6143 -11.7061 -18.8965 -22.5 -21.5625l457.188 -457.5l64.0625 -63.75l-10.9375 -10.9375s-29.0459 -29.6875 -29.0625 -29.6875v0
c-2.69434 -2.85449 -4.33594 -6.70801 -4.33594 -10.9395c0 -7.71289 5.49121 -14.1533 12.7734 -15.623c0 0 124.896 -22.1875 125 -22.1875v0c0.776367 -0.116211 1.55566 -0.192383 2.36426 -0.192383c8.7959 0 15.9375 7.1416 15.9375 15.9375
c0 0.808594 -0.0546875 1.60449 -0.176758 2.37988l-22.1875 125c-1.42383 7.16211 -7.75098 12.5801 -15.3281 12.5801c-4.24902 0 -8.10449 -1.69922 -10.9219 -4.45508l-39.6875 -39.6875z" />
</svg>
