<?xml version="1.0" standalone="no"?>
<!DOCTYPE svg PUBLIC "-//W3C//DTD SVG 1.1//EN" "http://www.w3.org/Graphics/SVG/1.1/DTD/svg11.dtd" >
<svg xmlns="http://www.w3.org/2000/svg" xmlns:xlink="http://www.w3.org/1999/xlink" version="1.1" viewBox="-10 0 1010 1000">
   <path fill="currentColor"
d="M500 481c-65 0 -121 -23 -167 -69s-69 -102 -69 -167s23 -121 69 -167s102 -69 167 -69s121 23 167 69s69 102 69 167s-23 121 -69 167s-102 69 -167 69zM913 763c1 19 2 38 2 58c0 51 -16 92 -48 123c-32 30 -74 45 -125 45h-472c-51 0 -92 -15 -124 -45
c-32 -31 -48 -72 -48 -123c0 -20 0 -39 1 -58s4 -40 8 -62s10 -43 16 -62c6 -20 14 -39 25 -58s24 -37 39 -51c15 -15 33 -26 55 -35c21 -9 46 -12 71 -12c10 0 19 4 38 16c12 8 25 16 40 26c13 8 31 15 52 22s42 11 63 11s43 -4 64 -11s38 -14 51 -22c15 -10 28 -19 40 -26
c19 -12 29 -16 39 -16c25 0 49 3 70 12c22 9 41 20 56 35c15 14 27 32 38 51s20 38 26 58c6 19 11 40 15 62s7 43 8 62zM913 763z" />
</svg>
