<?xml version="1.0" encoding="iso-8859-1"?>
<!-- Uploaded to: SVG Repo, www.svgrepo.com, Generator: SVG Repo Mixer Tools -->
<!DOCTYPE svg PUBLIC "-//W3C//DTD SVG 1.1//EN" "http://www.w3.org/Graphics/SVG/1.1/DTD/svg11.dtd">
<svg fill="#000000" version="1.1" id="Capa_1" xmlns="http://www.w3.org/2000/svg" xmlns:xlink="http://www.w3.org/1999/xlink" 
	 width="800px" height="800px" viewBox="0 0 227.661 227.661"
	 xml:space="preserve">
<g>
	<g>
		<path d="M5.852,56.158c3.242,2.923,7.464,4.533,11.887,4.533c2.827,0,5.631-0.682,8.112-1.971c0.91-0.473,1.79-1.033,2.616-1.666
			l5.042-3.866l13.478,12.586c0.349,0.326,0.808,0.505,1.28,0.505c0.059,0,0.119-0.003,0.178-0.008
			c0.535-0.052,1.022-0.329,1.338-0.764c3.4-4.668,7.42-8.969,11.949-12.782c0.41-0.345,0.653-0.849,0.667-1.386
			c0.014-0.537-0.203-1.053-0.594-1.419L48.008,37.038l3.209-5.225c4.464-7.266,3.104-16.689-3.235-22.406
			C44.74,6.486,40.517,4.878,36.09,4.878c-2.83,0-5.634,0.681-8.112,1.97c-1.875,0.973-3.551,2.272-4.984,3.862
			c-2.301,2.551-3.793,5.7-4.316,9.105l-0.747,4.871l-4.767,1.249c-3.329,0.872-6.307,2.686-8.616,5.247
			c-3.162,3.509-4.77,8.039-4.523,12.759C0.27,48.655,2.34,52.994,5.852,56.158z"/>
		<path d="M66.223,168.915v-13.696c0-0.513-0.209-1.003-0.58-1.356c-0.37-0.354-0.864-0.542-1.38-0.519
			c-1.392,0.064-2.771-0.162-4.079-0.664c-0.669-0.256-1.428-0.109-1.952,0.379L35.31,174.466l-5.041-3.86
			c-0.833-0.639-1.713-1.2-2.615-1.668c-2.483-1.291-5.292-1.974-8.122-1.974c-4.422,0-8.64,1.608-11.877,4.528
			c-3.514,3.164-5.583,7.505-5.827,12.221c-0.247,4.719,1.361,9.254,4.528,12.773c2.302,2.556,5.277,4.365,8.603,5.23l4.777,1.245
			l0.747,4.881c0.52,3.398,2.014,6.55,4.323,9.116c1.425,1.582,3.101,2.878,4.978,3.854c2.48,1.289,5.286,1.971,8.114,1.971
			c4.423,0,8.642-1.608,11.879-4.528c3.512-3.165,5.583-7.508,5.833-12.231c0.188-3.605-0.705-7.12-2.583-10.164l-3.229-5.229
			l16.475-15.386c0.504-0.472,0.709-1.181,0.534-1.847C66.419,171.924,66.223,170.416,66.223,168.915z"/>
		<path d="M223.114,31.181c-2.309-2.561-5.287-4.375-8.615-5.247l-4.769-1.249l-0.748-4.871c-0.522-3.406-2.016-6.554-4.315-9.105
			c-1.435-1.59-3.11-2.889-4.984-3.862c-2.478-1.289-5.282-1.97-8.11-1.97c-4.428,0-8.65,1.608-11.893,4.529
			c-6.339,5.717-7.7,15.141-3.235,22.406l3.21,5.225l-13.796,12.884c-0.393,0.366-0.608,0.882-0.595,1.419
			c0.013,0.537,0.256,1.041,0.667,1.386c4.529,3.813,8.549,8.114,11.949,12.782c0.315,0.435,0.804,0.711,1.337,0.764
			c0.06,0.005,0.119,0.008,0.178,0.008c0.474,0,0.932-0.179,1.28-0.505l13.478-12.586l5.043,3.866
			c0.825,0.633,1.705,1.193,2.615,1.666c2.48,1.289,5.285,1.971,8.112,1.971c4.423,0,8.645-1.61,11.887-4.533
			c3.513-3.164,5.582-7.503,5.827-12.218C227.883,39.22,226.275,34.69,223.114,31.181z"/>
		<path d="M220.007,171.492c-3.237-2.919-7.455-4.528-11.877-4.528c-2.83,0-5.638,0.683-8.122,1.974
			c-0.903,0.468-1.783,1.029-2.615,1.668l-5.042,3.86l-22.92-21.405c-0.524-0.49-1.284-0.637-1.953-0.379
			c-1.308,0.5-2.687,0.728-4.079,0.664c-0.516-0.024-1.01,0.164-1.38,0.518c-0.37,0.353-0.58,0.844-0.58,1.355v13.697
			c0,1.5-0.195,3.008-0.583,4.482c-0.175,0.668,0.03,1.377,0.534,1.848l16.476,15.386l-3.229,5.229
			c-1.878,3.042-2.771,6.557-2.583,10.164c0.25,4.723,2.321,9.065,5.833,12.23c3.238,2.92,7.456,4.528,11.879,4.528
			c2.828,0,5.634-0.681,8.114-1.97c1.877-0.977,3.551-2.272,4.977-3.854c2.309-2.565,3.804-5.717,4.323-9.116l0.746-4.881
			l4.778-1.244c3.326-0.867,6.301-2.677,8.603-5.231c3.167-3.519,4.774-8.054,4.528-12.773
			C225.59,178.997,223.521,174.656,220.007,171.492z"/>
		<path d="M162.624,145.83c0.794,0.114,1.595-0.155,2.157-0.725c11.221-11.371,17.398-26.017,17.398-41.234
			c0-33.98-30.533-61.699-68.35-62.371c-37.816,0.671-68.349,28.39-68.349,62.37c0,15.218,6.179,29.864,17.398,41.233
			c0.563,0.57,1.363,0.84,2.158,0.726c0.793-0.115,1.485-0.601,1.864-1.308l6.142-11.463c0.179-0.336,0.573-0.512,0.947-0.42
			c0.375,0.094,0.636,0.43,0.636,0.816v35.46c0,3.97,2.297,7.673,5.856,9.437c6.884,3.396,18.146,7.412,33.348,7.793
			c15.202-0.381,26.464-4.396,33.348-7.793c3.56-1.764,5.856-5.467,5.856-9.437v-35.46c0-0.387,0.262-0.723,0.637-0.816
			c0.374-0.092,0.768,0.084,0.947,0.42l6.142,11.463C161.139,145.229,161.831,145.715,162.624,145.83z M90.54,120.037
			c-9.59,0-17.392-9.275-17.392-20.675c0-2.621,2.135-4.754,4.76-4.754h25.251c2.627,0,4.766,2.139,4.77,4.776
			C107.927,110.77,100.127,120.037,90.54,120.037z M125.711,143.122l-4.864,4.194c-0.256,0.222-0.639,0.267-0.939,0.109
			l-5.232-2.744c-0.687-0.359-1.001-0.359-1.688,0l-5.232,2.744c-0.301,0.156-0.684,0.112-0.94-0.109l-4.864-4.194
			c-0.351-0.303-0.391-0.835-0.088-1.187l9.596-11.141c1.438-1.676,3.304-1.676,4.743,0l9.596,11.141
			C126.102,142.287,126.062,142.819,125.711,143.122z M137.122,120.037c-9.586,0-17.389-9.267-17.39-20.654
			c0.003-2.637,2.143-4.776,4.771-4.776h25.25c2.625,0,4.76,2.133,4.76,4.754C154.513,110.761,146.712,120.037,137.122,120.037z"/>
	</g>
</g>
</svg>