<?xml version="1.0" standalone="no"?>
<!DOCTYPE svg PUBLIC "-//W3C//DTD SVG 1.1//EN" "http://www.w3.org/Graphics/SVG/1.1/DTD/svg11.dtd" >
<svg xmlns="http://www.w3.org/2000/svg" xmlns:xlink="http://www.w3.org/1999/xlink" version="1.1" viewBox="-10 0 1010 1000">
   <path fill="currentColor"
d="M148.658 248.965c-15.9043 15.9023 -36.7061 23.8457 -57.4932 23.8457c-20.7549 0 -41.4941 -7.9209 -57.3262 -23.75c-15.8916 -15.8916 -23.8369 -36.6748 -23.8369 -57.458s7.94531 -41.5664 23.8369 -57.458c15.8281 -15.8262 36.4854 -23.7393 57.2227 -23.7393
c7.52441 0 15.0596 1.04199 22.3779 3.12598c-2.03516 -7.26074 -3.05176 -14.7334 -3.05176 -22.1963c0 -20.8887 7.96582 -41.7041 23.8574 -57.5977c15.7959 -15.7959 36.5557 -23.7178 57.3389 -23.7178s41.5908 7.92188 57.4824 23.8135
c15.832 15.8311 23.7305 36.5947 23.7305 57.3506c0 20.7871 -7.92188 41.5664 -23.7305 57.375c-2.43066 2.42871 -5.00684 4.60938 -7.64844 6.66699l25.9531 25.9541c-31.4023 26.2324 -58.3145 57.6562 -79.4287 92.9443l-32.709 -32.708
c-2.0332 2.60449 -4.17871 5.15234 -6.5752 7.54883zM758.567 155.224c-2.64062 -2.05957 -5.21875 -4.24512 -7.64551 -6.66992c-15.7959 -15.7959 -23.7178 -36.5557 -23.7178 -57.3389s7.92188 -41.5898 23.8135 -57.4805
c15.832 -15.833 36.5957 -23.7314 57.3516 -23.7314c20.7871 0 41.5664 7.92285 57.375 23.7314c15.9404 15.9404 23.8721 36.7891 23.8721 57.6045c0 7.47656 -1.02344 14.9482 -3.06641 22.1875c7.26758 -2.08398 14.7793 -3.12598 22.2969 -3.12598
c20.7168 0 41.4775 7.91309 57.3027 23.7383c15.9033 15.9033 23.8486 36.7061 23.8486 57.4932c0 20.7559 -7.92188 41.4961 -23.7539 57.3291c-15.8906 15.8906 -36.6729 23.8359 -57.4561 23.8359s-41.5664 -7.94531 -57.459 -23.8359
c-2.39648 -2.39648 -4.5459 -4.94238 -6.5791 -7.54492l-32.7363 32.7344c-21.167 -35.1709 -48.1152 -66.6084 -79.5146 -92.8574zM851.424 750.907c15.7959 -15.7969 36.5566 -23.7178 57.3398 -23.7178s41.5898 7.92188 57.4805 23.8135
c15.833 15.832 23.7314 36.5957 23.7314 57.3516c0 20.7871 -7.92285 41.5664 -23.7314 57.375c-15.9404 15.9414 -36.7891 23.873 -57.6045 23.873c-7.47656 0 -14.9482 -1.02344 -22.1865 -3.06641c2.08301 7.2666 3.125 14.7773 3.125 22.2939
c0 20.7168 -7.91406 41.4785 -23.7412 57.3057c-15.9033 15.9043 -36.7061 23.8506 -57.4932 23.8506c-20.7559 0 -41.4961 -7.92285 -57.3281 -23.7559c-15.8906 -15.8906 -23.8359 -36.6729 -23.8359 -57.4561s7.94531 -41.5664 23.8359 -57.459
c2.39844 -2.39648 4.94238 -4.54395 7.54492 -6.5791l-66.1406 -66.1416c7.35352 -10.9453 16.6328 -20.8711 27.6826 -29.3105c22.0938 -16.8271 41.7051 -35.8242 58.9854 -56.3965l65.667 65.666c2.05762 -2.64062 4.24023 -5.21973 6.66895 -7.64648zM282.072 751.016
c10.1006 7.55469 18.6709 16.9229 25.5957 27.4775l-66.2461 66.2471c2.60449 2.0332 5.15234 4.17871 7.54883 6.5752c15.9043 15.9033 23.8506 36.7061 23.8506 57.4932c0 20.7559 -7.92188 41.4961 -23.7539 57.3271c-15.8916 15.8926 -36.6748 23.8389 -57.458 23.8389
s-41.5664 -7.94629 -57.459 -23.8389c-15.8262 -15.8262 -23.7393 -36.4834 -23.7393 -57.2207c0 -7.52441 1.04199 -15.0596 3.12598 -22.3779c-7.25879 2.03418 -14.7295 3.05078 -22.1914 3.05078c-20.8896 0 -41.707 -7.96582 -57.5996 -23.8584
c-15.7959 -15.7959 -23.7178 -36.5547 -23.7178 -57.3379s7.92188 -41.5908 23.8135 -57.4834c15.8311 -15.8311 36.5947 -23.7295 57.3506 -23.7295c20.7861 0 41.5645 7.92188 57.373 23.7295c2.42871 2.43066 4.60938 5.00879 6.66699 7.64844l65.5312 -65.5303
c17.8779 21.3018 38.3721 40.7773 61.3086 57.9893zM707.464 732.7c-34.2842 26.1826 -55.3428 65.8672 -55.3486 108.924v40.7627c0 29.8301 -24.1611 53.9912 -53.9922 53.9912h-7.69238v-45.084c0 -10.5293 -8.50195 -19.0312 -19.0312 -19.0312
s-19.0322 8.50195 -19.0322 19.0312v45.084h-33.3408v-45.084c0 -10.5293 -8.50195 -19.0312 -19.0312 -19.0312s-19.0312 8.50195 -19.0312 19.0312v45.084h-33.3418v-45.084c0 -10.5293 -8.50195 -19.0312 -19.0312 -19.0312s-19.0312 8.50195 -19.0312 19.0312v45.084
h-7.69238c-29.8311 0 -53.9922 -24.1592 -53.9922 -53.9912v-38.4697c0 -42.7861 -19.0312 -83.958 -53.3164 -109.602c-83.2812 -62.4941 -137.14 -161.976 -137.14 -274.144c0 -189.219 153.281 -342.575 342.467 -342.575c12.8418 0 25.8496 0.707031 38.9863 2.15723
c155.365 17.1426 281.3 140.784 300.871 295.879c1.9043 15.0605 2.8291 29.958 2.8291 44.6377c0 111.226 -53.0703 209.946 -135.108 272.43zM351.402 616.73c49.5459 0 107.938 -76.8398 107.938 -126.492c0 -49.5459 -58.3926 -52.9932 -107.938 -52.9932
c-49.6543 0 -89.7979 40.1436 -89.7979 89.6875c0 49.6543 40.1436 89.7979 89.7979 89.7979zM535.949 760.86h0.0136719c13.0088 0 22.1709 -10.6807 22.1709 -22.1963c0 -4.07129 -1.14551 -8.24707 -3.6709 -12.0928l-35.9785 -54.752
c-4.37109 -6.65332 -11.4346 -9.97949 -18.498 -9.97949s-14.127 3.32715 -18.498 9.98047l-35.9502 54.708c-2.52734 3.8457 -3.67383 8.02246 -3.67383 12.0947c0 11.5098 9.1543 22.1846 22.1582 22.1934zM648.594 616.73c49.6543 0 89.7979 -40.1436 89.7979 -89.7998
c0 -49.5439 -40.1436 -89.6875 -89.7979 -89.6875c-49.5459 0 -107.938 3.44727 -107.938 52.9932c0 49.6543 58.3926 126.494 107.938 126.494z" />
</svg>
