<?xml version="1.0" standalone="no"?>
<!DOCTYPE svg PUBLIC "-//W3C//DTD SVG 1.1//EN" "http://www.w3.org/Graphics/SVG/1.1/DTD/svg11.dtd" >
<svg xmlns="http://www.w3.org/2000/svg" xmlns:xlink="http://www.w3.org/1999/xlink" version="1.1" viewBox="-10 0 1010 1000">
   <path fill="currentColor"
d="M929 84c41 80 61 220 61 416c0 131 -51 254 -144 346c-92 93 -215 144 -346 144c-97 0 -191 -28 -272 -82c-16 -6 -28 -7 -35 -7s-11 1 -13 2c-3 3 -4 10 -4 18c0 10 2 22 5 31s2 19 -4 26c-5 8 -14 12 -23 12c-8 0 -48 -4 -83 -74c-41 -80 -61 -220 -61 -416
c0 -131 51 -254 144 -346c92 -93 215 -144 346 -144c97 0 191 28 272 82c16 6 28 7 35 7s11 -1 13 -2c3 -3 4 -10 4 -18c0 -10 -2 -22 -5 -31s-2 -19 4 -26c5 -8 14 -12 23 -12c8 0 48 4 83 74zM500 875c207 0 375 -168 375 -375s-168 -375 -375 -375s-375 168 -375 375
s168 375 375 375zM500 183c175 0 317 142 317 317s-142 317 -317 317s-317 -142 -317 -317s142 -317 317 -317zM500 759c143 0 259 -116 259 -259s-116 -259 -259 -259s-259 116 -259 259s116 259 259 259zM298 500c0 -112 90 -202 202 -202s202 90 202 202
s-90 202 -202 202s-202 -90 -202 -202z" />
</svg>
