<?xml version="1.0" encoding="UTF-8" standalone="no"?>
<!DOCTYPE svg PUBLIC "-//W3C//DTD SVG 1.1//EN" "http://www.w3.org/Graphics/SVG/1.1/DTD/svg11.dtd">
<svg width="100%" height="100%" viewBox="0 0 100 100" version="1.1" xmlns="http://www.w3.org/2000/svg" xmlns:xlink="http://www.w3.org/1999/xlink" xml:space="preserve" xmlns:serif="http://www.serif.com/" style="fill-rule:evenodd;clip-rule:evenodd;stroke-linejoin:round;stroke-miterlimit:2;">
    <g transform="matrix(2.08333,0,0,2.08333,-54.1667,-54.1667)">
        <g transform="matrix(1.44,0,0,1.44,-34.96,-33.52)">
            <path d="M59,47C65.071,47 70,51.929 70,58C70,64.071 65.071,69 59,69C52.929,69 48,64.071 48,58C48,51.929 52.929,47 59,47ZM59,48C53.481,48 49,52.481 49,58C49,63.519 53.481,68 59,68C64.519,68 69,63.519 69,58C69,52.481 64.519,48 59,48Z"/>
        </g>
        <g transform="matrix(1.824,0,0,1.824,-57.616,-55.792)">
            <path d="M59,46.421C65.391,46.421 70.579,51.609 70.579,58C70.579,64.391 65.391,69.579 59,69.579C52.609,69.579 47.421,64.391 47.421,58C47.421,51.609 52.609,46.421 59,46.421ZM59,48C53.481,48 49,52.481 49,58C49,63.519 53.481,68 59,68C64.519,68 69,63.519 69,58C69,52.481 64.519,48 59,48Z"/>
        </g>
        <g transform="matrix(1.2,0,0,1.2,-20.8,-19.6)">
            <circle cx="59" cy="58" r="10"/>
        </g>
    </g>
    <path d="M6,50C1.746,94.666 27.28,102.14 21,84.891C20.659,83.954 22.837,84.683 23.5,85L6,50Z"/>
    <g transform="matrix(-1,-1.22465e-16,1.22465e-16,-1,100.065,100)">
        <path d="M6,50C1.746,94.666 27.28,102.14 21,84.891C20.659,83.954 22.837,84.683 23.5,85L6,50Z"/>
    </g>
</svg>
