<?xml version="1.0" standalone="no"?>
<!DOCTYPE svg PUBLIC "-//W3C//DTD SVG 1.1//EN" "http://www.w3.org/Graphics/SVG/1.1/DTD/svg11.dtd" >
<svg xmlns="http://www.w3.org/2000/svg" xmlns:xlink="http://www.w3.org/1999/xlink" version="1.1" viewBox="-10 0 1017 1000">
   <path fill="currentColor"
d="M531 44l131.999 278.999l303 37c18.667 4 30.2227 20.4443 30.2227 37.4814c0 8.51855 -2.88867 17.1855 -9.22168 24.5186l-222 214l55 298c0.149414 1.44043 0.22168 2.8584 0.22168 4.25098c0 21.3213 -16.9912 36.8125 -36.9219 36.8125
c-4.98926 0 -10.1631 -0.970703 -15.2998 -3.06348l-269 -143l-269 143c-5.13672 2.09277 -10.3467 3.06348 -15.3945 3.06348c-20.2061 0 -37.8203 -15.5547 -37.8203 -36.9434c0 -1.35059 0.0703125 -2.72461 0.214844 -4.11914l56 -298l-222 -214
c-6.49805 -7.52441 -9.4873 -16.4521 -9.4873 -25.1836c0 -16.7979 11.0635 -32.8682 29.4873 -36.8164l303 -37l132 -279c7.5 -12.5 20 -18.75 32.5 -18.75s25 6.25 32.5 18.75z" />
</svg>
