<?xml version="1.0" encoding="UTF-8" standalone="no"?>
<!DOCTYPE svg PUBLIC "-//W3C//DTD SVG 1.1//EN" "http://www.w3.org/Graphics/SVG/1.1/DTD/svg11.dtd">
<svg width="100%" height="100%" viewBox="0 0 800 800" version="1.1" xmlns="http://www.w3.org/2000/svg" xmlns:xlink="http://www.w3.org/1999/xlink" xml:space="preserve" xmlns:serif="http://www.serif.com/" style="fill-rule:evenodd;clip-rule:evenodd;stroke-linejoin:round;stroke-miterlimit:2;">
    <g transform="matrix(-2.75647,0,0,2.75647,799.997,0)">
        <path d="M63.951,243.575C62.006,239.997 59.55,236.668 56.588,233.706C53.482,230.604 49.962,228.073 46.188,226.076C41.678,223.689 45.243,218.576 45.243,218.576C49.859,211.553 54.068,204.497 57.548,198.35L34.185,175.006L11.504,175.006C7.142,175.006 3.606,171.467 3.606,167.104C3.606,162.743 7.142,159.204 11.504,159.204L37.451,159.204C39.551,159.204 41.558,160.036 43.039,161.516L128.418,246.807C129.901,248.29 130.733,250.302 130.733,252.396L130.733,278.469C130.733,282.834 127.196,286.366 122.833,286.366C118.466,286.366 114.929,282.835 114.929,278.469L114.929,255.671L91.659,232.431C85.378,236.138 78.077,240.683 70.843,245.681C70.842,245.679 66.698,248.629 63.951,243.575Z" style="fill-rule:nonzero;"/>
        <path d="M26.61,237.102C19.504,237.102 12.826,239.866 7.798,244.886C2.779,249.901 0.016,256.572 0.016,263.664C0.016,270.761 2.78,277.426 7.798,282.44C12.825,287.456 19.504,290.223 26.61,290.225C33.712,290.225 40.391,287.455 45.414,282.44C50.437,277.425 53.204,270.758 53.204,263.664C53.204,256.571 50.436,249.9 45.414,244.886C40.392,239.866 33.712,237.102 26.61,237.102Z" style="fill-rule:nonzero;"/>
        <path d="M107.688,201.738C104.186,198.24 91.753,185.817 88.251,182.319L79.441,173.518C75.939,170.02 75.939,164.295 79.441,160.797L229.832,10.564C233.334,7.066 240.233,3.837 245.162,3.389L282.024,0.037C286.954,-0.411 290.62,3.255 290.172,8.185L286.826,44.976C286.378,49.906 283.146,56.801 279.644,60.3L129.244,210.551C125.742,214.049 120.012,214.049 116.51,210.551L107.688,201.738Z" style="fill-rule:nonzero;"/>
    </g>
</svg>
