<?xml version="1.0" encoding="UTF-8" standalone="no"?>
<!DOCTYPE svg PUBLIC "-//W3C//DTD SVG 1.1//EN" "http://www.w3.org/Graphics/SVG/1.1/DTD/svg11.dtd">
<svg width="100%" height="100%" viewBox="0 0 800 800" version="1.1" xmlns="http://www.w3.org/2000/svg" xmlns:xlink="http://www.w3.org/1999/xlink" xml:space="preserve" xmlns:serif="http://www.serif.com/" style="fill-rule:evenodd;clip-rule:evenodd;stroke-linejoin:round;stroke-miterlimit:2;">
    <g transform="matrix(-1.26522,0,0,1.26522,800,-212.172)">
        <path d="M319.941,397.587L373.397,344.144C311.198,315.561 235.047,326.833 183.881,378.011C118.236,443.645 118.236,550.467 183.881,616.125C249.514,681.772 356.35,681.772 421.984,616.125C473.15,564.961 484.434,488.797 455.852,426.597L402.397,480.052C407.68,511.264 398.408,544.464 374.367,568.495C334.977,607.898 270.891,607.898 231.502,568.495C192.111,529.105 192.111,465.02 231.502,425.641C255.541,401.588 288.741,392.303 319.941,397.587Z" style="fill-rule:nonzero;"/>
        <path d="M505.669,376.791C559.3,467.222 547.297,586.07 469.612,663.744C377.697,755.659 228.164,755.659 136.261,663.744C44.345,571.842 44.345,422.295 136.261,330.381C213.922,252.708 332.784,240.705 423.214,294.325L471.989,245.536C354.197,166.328 192.686,178.708 88.63,282.75C-29.541,400.908 -29.541,593.203 88.63,711.361C206.802,829.545 399.072,829.545 517.242,711.361C621.309,607.306 633.677,445.795 554.444,327.989L505.669,376.791Z" style="fill-rule:nonzero;"/>
        <g transform="matrix(0.830425,0,0,0.849274,45.6594,79.9975)">
            <path d="M705.312,169.795C702.796,163.24 696.431,159.201 689.221,159.529L616.958,190.754L643.86,126.703C644.174,119.481 640.135,113.14 633.582,110.6C627.066,108.084 619.329,109.895 614.019,115.179L554.151,168.409L524.262,250.433L310.366,464.316C299.484,461.85 287.608,464.769 279.128,473.247C265.969,486.406 265.969,507.719 279.128,520.878C292.275,534.038 313.6,534.038 326.759,520.878C335.225,512.398 338.158,500.522 335.691,489.628L549.575,275.731L639.81,252.168L700.734,189.345C706.031,184.049 707.829,176.335 705.312,169.795Z" style="fill-rule:nonzero;"/>
        </g>
    </g>
</svg>
