<?xml version="1.0" standalone="no"?>
<!DOCTYPE svg PUBLIC "-//W3C//DTD SVG 1.1//EN" "http://www.w3.org/Graphics/SVG/1.1/DTD/svg11.dtd" >
<svg xmlns="http://www.w3.org/2000/svg" xmlns:xlink="http://www.w3.org/1999/xlink" version="1.1" viewBox="-10 0 1010 1000">
   <path fill="currentColor"
d="M520.039 480.861c5.12695 5.37109 7.78906 12.2793 7.78906 19.2275c0 7.15332 -2.82324 14.3477 -8.68848 19.9463c-5.47266 5.22266 -12.3057 7.80859 -19.125 7.80859c-6.86426 0 -13.7148 -2.62012 -19.1504 -7.80859
c-0.163086 -0.155273 -0.379883 -0.200195 -0.539062 -0.359375l-158.836 -158.836h-99.8037c-7.39258 0 -14.458 -2.93555 -19.6777 -8.1543l-168.848 -168.847c-7.96289 -7.96289 -10.3555 -19.9238 -6.0332 -30.333c4.29297 -10.4111 14.459 -17.1777 25.709 -17.1758
h85.3516v-83.4961c0 -11.252 6.76855 -21.418 17.1777 -25.7109c10.4111 -4.32129 22.3975 -1.90234 30.333 6.03223l166.992 168.846c5.21777 5.21875 8.15332 12.2852 8.15332 19.6787v99.8037l158.836 158.838c0.15918 0.15918 0.204102 0.375977 0.359375 0.540039z
M500 25.0029c260.899 0 474.998 214.101 474.998 474.996s-214.103 474.998 -474.998 474.998s-474.996 -214.103 -474.996 -474.998c0 -71.2148 18.1201 -138.548 46.418 -199.183l85.3779 85.3779c-11.9141 35.832 -18.6143 74.0234 -18.6143 113.805
c0 199.5 162.314 361.814 361.814 361.814s361.814 -162.316 361.814 -361.814c0 -199.497 -162.312 -361.812 -361.809 -361.812h-0.00390625c-39.7812 0 -77.9727 6.69824 -113.806 18.6143l-85.377 -85.3779c60.6328 -28.3018 127.966 -46.4199 199.181 -46.4199z
M500 249.513c138.127 0 250.488 112.359 250.488 250.486s-112.363 250.486 -250.488 250.486s-250.486 -112.359 -250.486 -250.486c0 -29.418 6.03027 -57.25 15.3877 -83.4961h33.5352l64.3408 64.3438c-0.883789 6.31836 -1.9375 12.5938 -1.9375 19.1543
c0 76.7295 62.4307 139.16 139.16 139.16s139.16 -62.4307 139.16 -139.16s-62.4307 -139.16 -139.16 -139.16c-6.55859 0 -12.834 1.05371 -19.1543 1.9375l-64.3418 -64.3428v-33.5352c26.2461 -9.35742 54.0781 -15.3877 83.4961 -15.3877z" />
</svg>
