<?xml version="1.0" standalone="no"?>
<!DOCTYPE svg PUBLIC "-//W3C//DTD SVG 1.1//EN" "http://www.w3.org/Graphics/SVG/1.1/DTD/svg11.dtd" >
<svg xmlns="http://www.w3.org/2000/svg" xmlns:xlink="http://www.w3.org/1999/xlink" version="1.1" viewBox="-10 0 1012 1000">
   <path fill="currentColor"
d="M499 878.659c53.2197 0 96.3281 -43.1084 96.3281 -96.3281s-43.1084 -96.3281 -96.3281 -96.3281s-96.3271 43.1084 -96.3271 96.3281s43.1074 96.3281 96.3271 96.3281zM565.525 564.662l23.9482 -402.874c0 -15.9658 -13.3047 -29.2705 -29.2705 -29.2705h-125.066
c-15.9658 0 -29.2715 13.3047 -29.2715 29.2705l23.9492 402.874c0 15.9658 13.3047 29.2705 29.2705 29.2705h77.1689c15.9658 0 29.2715 -13.3047 29.2715 -29.2705zM0 892v-779c0 -57 49 -107 106 -107h779c57 0 107 49 107 106v779c0 57 -49 109 -106 109h-779
c-57 0 -107 -51 -107 -108z" />
</svg>
