<?xml version="1.0" standalone="no"?>
<!DOCTYPE svg PUBLIC "-//W3C//DTD SVG 1.1//EN" "http://www.w3.org/Graphics/SVG/1.1/DTD/svg11.dtd" >
<svg xmlns="http://www.w3.org/2000/svg" xmlns:xlink="http://www.w3.org/1999/xlink" version="1.1" viewBox="-10 0 1010 1000">
   <path fill="currentColor"
d="M122 760c4 -4 19 -6 34 -6c13 0 26 1 31 1h33c18 0 21 17 21 32l2 64c0 8 -2 14 -5 17l-43 43l-50 51c-3 3 -8 5 -13 5c-10 0 -18 -8 -18 -18v-69c-21 1 -51 4 -72 4c-5 0 -10 -1 -14 -5c-7 -7 -7 -19 0 -26l55 -55zM662 763c4 -5 8 -11 12 -16c24 -30 52 -56 83 -79
l139 139l-95 95zM652 647c42 -40 97 -77 164 -110c4 -2 8 -3 13 -3c4 0 8 1 12 2c8 3 15 9 18 17c2 5 3 9 3 14c0 9 -3 17 -9 23c-3 3 -6 5 -10 7c-120 54 -203 134 -246 245c-5 13 -17 20 -30 20c-4 0 -9 0 -13 -2c-8 -3 -15 -10 -18 -18s-3 -17 0 -25
c14 -35 26 -56 43 -82c18 -28 37 -56 62 -78zM801 980c-7 -7 -11 -16 -11 -26s4 -18 11 -25l122 -123c7 -7 16 -10 25 -10s19 3 26 10s10 16 10 26s-3 18 -10 25l-93 94l-29 29c-7 7 -17 10 -26 10s-18 -3 -25 -10zM237 17c9 0 17 4 23 11l468 539c-32 20 -61 43 -87 68
l-491 -491c-2 -2 -3 -2 -5 -2s-4 0 -6 2c-3 3 -3 8 0 11l491 491c-16 16 -30 33 -43 51l-21 30l-538 -467c-7 -6 -11 -14 -11 -23l-7 -195c0 -9 3 -17 9 -23s14 -9 22 -9zM379 589l27 24l-151 151c-4 -12 -14 -22 -26 -25zM943 34c10 0 18 11 16 21l-26 145c-1 3 -2 7 -4 9
c-7 7 -19 7 -26 0l-46 -46l-244 244l-24 -28l167 -168l74 -73l-12 -13l-34 -34c-2 -3 -4 -6 -5 -9c-2 -10 5 -20 15 -22l144 -26c2 0 4 -1 5 0z" />
</svg>
